<?xml version="1.0" encoding="UTF-8"?>
<svg id="Camada_2" xmlns="http://www.w3.org/2000/svg" viewBox="0 0 193.81 30.74">
  <defs>
    <style>
      .cls-1 {
        fill: #fff;
      }
    </style>
  </defs>
  <g id="Camada_1-2" data-name="Camada_1">
    <g>
      <polygon class="cls-1" points="36.27 30.74 27.86 30.74 18.91 16.11 14.54 23.24 7.18 23.24 7.18 30.74 0 30.74 0 0 7.18 0 7.18 21.51 20.36 0 28.77 0 19.59 14.99 26.63 14.99 36.27 30.74"/>
      <path class="cls-1" d="M60.95,0h-9.83l-10.52,30.74h7.31l1.85-6.05h12.54l1.86,6.05h7.27L60.95,0ZM51.18,20.07l4.52-14.76h.65l4.54,14.76h-9.71Z"/>
      <path class="cls-1" d="M75.67,30.73V0h10.06l8.57,23.14h.23L102.96,0h9.59v30.73h-6.29l.37-23.94h-.47l-9.31,23.94h-5.68l-9.17-23.94h-.47l.37,23.94h-6.24Z"/>
      <path class="cls-1" d="M137.18,0h-9.83l-10.52,30.74h7.31l1.85-6.05h12.54l1.86,6.05h7.27L137.18,0ZM127.41,20.07l4.52-14.76h.65l4.54,14.76h-9.71Z"/>
      <path class="cls-1" d="M151.9,30.73V0h6.8v30.73h-6.8Z"/>
      <path class="cls-1" d="M183.33,0h-9.83l-10.52,30.74h7.31l1.85-6.05h12.54l1.86,6.05h7.26L183.33,0ZM173.55,20.07l4.52-14.76h.65l4.54,14.76h-9.71Z"/>
    </g>
  </g>
</svg>